<svg width="119" height="407" viewBox="0 0 119 407" fill="none" xmlns="http://www.w3.org/2000/svg">
<g id="map">
<path id="path" d="M55.865 8.1347L54.1468 8.07188L52.4311 7.96979L50.6819 9.62675L51.5387 12.2378L51.5304 13.9772L51.5057 15.697L51.4958 20.8839L50.6271 25.1598L51.481 26.055L50.635 28.6111L50.6483 32.0624L50.6557 33.8058L51.5146 34.6971L50.6468 35.5334L49.8102 38.0935L48.9583 40.6378L49.8517 45.0276L49.0072 47.5758L49.0269 49.327L49.0501 51.0389L49.941 53.6814L49.9657 55.4326L49.1602 59.7399L48.3616 64.0512L48.4307 67.5221L47.6271 70.0979L47.6459 71.8373L47.7051 73.5728L47.7268 75.3122L47.7683 77.0712L48.714 79.702L47.8576 80.5461L47.0008 81.3943L44.405 82.1521L43.5482 82.9962L40.066 82.851L39.2076 83.6991L38.4169 86.2827L35.8167 87.0366L33.2634 89.5495L29.8207 91.1593L27.1958 91.9211L26.3573 92.7456L21.1416 94.2651L20.2818 95.1093L16.8312 96.7074L13.3593 98.2819L10.765 99.0318L11.6584 99.9467L11.7107 101.721L12.6056 102.632L15.2744 103.634L16.227 106.319L17.1431 107.25L17.265 110.76L15.572 112.433L15.6352 114.208L16.5365 115.118L17.5049 117.808L18.4975 120.474L19.4733 123.16L21.305 124.997L22.2872 127.683L25.0522 130.443L25.1519 132.198L25.2141 133.958L27.0572 135.791L27.3158 141.088L28.2314 141.991L29.2378 144.677L28.5053 147.296L28.5991 149.078L27.9486 153.46L28.8711 154.363L28.9905 156.126L29.0719 157.893L30.0996 160.579L29.3839 163.206L29.4713 164.969L29.5991 166.735L29.6889 168.502L31.5882 170.348L31.6815 172.115L32.7486 174.781L33.7012 175.703L32.9633 178.334L33.9179 179.257L34.9949 181.923L36.8893 183.745L37.9524 186.43L39.8517 188.248L40.8118 189.167L41.7525 190.062L40.9218 190.934L42.0156 193.6L41.1854 194.472L41.3394 196.239L42.4203 198.924L41.7303 201.547L41.8695 203.338L42.8379 204.257L43.1232 207.798L44.2199 210.484L45.3201 213.173L47.2476 214.98L47.3986 216.735L49.33 218.541L50.4618 221.242L49.7984 223.877L49.9573 225.667L51.0787 228.357L50.2791 229.217L50.4223 230.992L49.9351 235.425L50.1034 237.219L49.3053 238.083L48.9825 244.298L47.5462 247.848L47.7229 249.646L46.9277 250.51L46.2717 253.18L45.4766 254.044L44.0492 257.597L42.4213 259.372L40.9776 262.91L39.5581 266.467L38.7644 267.335L36.949 267.303L36.1351 268.191L38.1208 270.009L40.3216 273.609L39.6849 276.287L41.6795 278.101L44.0975 283.508L44.2806 285.298L45.2925 286.213L46.2841 287.108L46.5101 288.895L48.518 290.701L49.7234 293.402L49.9154 295.193L50.9326 296.104L53.1834 299.693L54.1824 300.584L53.3813 301.483L53.6009 303.289L53.8201 305.06L55.0451 307.758L56.2742 310.459L56.521 312.245L58.7835 315.854L58.9948 317.644L58.2174 318.528L59.4612 321.225L58.666 322.128L58.1271 324.822L58.3447 326.616L57.5693 327.5L57.016 330.217L56.4632 332.895L55.1404 336.499L55.3852 338.274L54.8413 340.999L53.5062 344.588L52.9864 347.289L54.0313 348.2L53.2406 349.107L53.4938 350.886L53.751 352.704L53.7194 359.013L54.0017 360.812L54.5111 364.432L53.7431 365.323L54.2594 368.947L53.4923 369.839L51.9203 371.66L52.9568 372.556L51.6789 376.18L52.7391 377.091L53.2915 380.699L53.5491 382.505L53.8487 384.307L54.1098 386.114L54.6759 389.722L53.8946 390.641L52.3507 392.451L52.6389 394.277L52.9065 396.087L53.2164 397.893L53.4869 399.699L54.5595 400.61" stroke="#CCCCCC"/>
<g id="points">
<g id="Group">
<path id="Vector" d="M55.865 10.6347C57.2457 10.6347 58.365 9.51542 58.365 8.1347C58.365 6.75399 57.2457 5.6347 55.865 5.6347C54.4843 5.6347 53.365 6.75399 53.365 8.1347C53.365 9.51542 54.4843 10.6347 55.865 10.6347Z" fill="#999999"/>
<path id="St. Petersburg" d="M49.3689 7.53197C48.404 7.25462 47.7009 6.91478 47.2595 6.51244C46.822 6.10619 46.6033 5.60619 46.6033 5.01244C46.6033 4.34056 46.8708 3.78587 47.406 3.34837C47.9451 2.90697 48.6443 2.68626 49.5036 2.68626C50.0896 2.68626 50.6111 2.79955 51.0681 3.02611C51.529 3.25267 51.8845 3.56517 52.1345 3.96361C52.3884 4.36205 52.5154 4.79759 52.5154 5.27025H51.3845C51.3845 4.75462 51.2204 4.35033 50.8923 4.05736C50.5642 3.76048 50.1013 3.61205 49.5036 3.61205C48.949 3.61205 48.5154 3.73509 48.2029 3.98119C47.8943 4.22337 47.74 4.56126 47.74 4.99486C47.74 5.34251 47.8865 5.63744 48.1794 5.87962C48.4763 6.1179 48.9783 6.33665 49.6853 6.53587C50.3962 6.73509 50.9509 6.9558 51.3493 7.19798C51.7517 7.43626 52.0486 7.71556 52.24 8.03587C52.4353 8.35619 52.5329 8.73314 52.5329 9.16673C52.5329 9.85814 52.2634 10.4128 51.7243 10.8308C51.1853 11.2449 50.4646 11.4519 49.5622 11.4519C48.9763 11.4519 48.4294 11.3406 47.9216 11.1179C47.4138 10.8913 47.0212 10.5827 46.7439 10.1921C46.4704 9.8015 46.3337 9.35814 46.3337 8.86205H47.4646C47.4646 9.37767 47.654 9.78587 48.0329 10.0867C48.4158 10.3835 48.9255 10.532 49.5622 10.532C50.156 10.532 50.6111 10.4109 50.9275 10.1687C51.2439 9.9265 51.4021 9.59642 51.4021 9.17845C51.4021 8.76048 51.2556 8.43822 50.9626 8.21165C50.6697 7.98119 50.1384 7.75462 49.3689 7.53197ZM55.281 3.4597V4.99486H56.4646V5.83275H55.281V9.76439C55.281 10.0183 55.3337 10.2097 55.4392 10.3386C55.5447 10.4636 55.7243 10.5261 55.9783 10.5261C56.1033 10.5261 56.2751 10.5027 56.4939 10.4558V11.3347C56.2087 11.4128 55.9314 11.4519 55.6618 11.4519C55.1775 11.4519 54.8122 11.3054 54.5661 11.0124C54.3201 10.7195 54.197 10.3035 54.197 9.76439V5.83275H53.0427V4.99486H54.197V3.4597H55.281ZM57.7595 10.7663C57.7595 10.5788 57.8142 10.4226 57.9236 10.2976C58.0368 10.1726 58.2048 10.1101 58.4275 10.1101C58.6501 10.1101 58.8181 10.1726 58.9314 10.2976C59.0486 10.4226 59.1072 10.5788 59.1072 10.7663C59.1072 10.946 59.0486 11.0964 58.9314 11.2175C58.8181 11.3386 58.6501 11.3992 58.4275 11.3992C58.2048 11.3992 58.0368 11.3386 57.9236 11.2175C57.8142 11.0964 57.7595 10.946 57.7595 10.7663ZM65.1716 7.99486V11.3347H64.0466V2.80345H67.1931C68.1267 2.80345 68.8572 3.04173 69.3845 3.5183C69.9158 3.99486 70.1814 4.62572 70.1814 5.41087C70.1814 6.239 69.9216 6.87767 69.4021 7.32689C68.8865 7.7722 68.1462 7.99486 67.1814 7.99486H65.1716ZM65.1716 7.07494H67.1931C67.7947 7.07494 68.2556 6.93431 68.5759 6.65306C68.8962 6.3679 69.0564 5.95775 69.0564 5.42259C69.0564 4.91478 68.8962 4.50853 68.5759 4.20384C68.2556 3.89915 67.8161 3.74095 67.2576 3.72923H65.1716V7.07494ZM73.9958 11.4519C73.1365 11.4519 72.4372 11.1706 71.8982 10.6081C71.3591 10.0417 71.0896 9.28587 71.0896 8.34056V8.14134C71.0896 7.51244 71.2087 6.95189 71.447 6.4597C71.6892 5.96361 72.0251 5.57689 72.4548 5.29955C72.8884 5.0183 73.3572 4.87767 73.8611 4.87767C74.6853 4.87767 75.3259 5.14915 75.7829 5.69212C76.24 6.23509 76.4685 7.01244 76.4685 8.02415V8.47533H72.1736C72.1892 9.10033 72.3708 9.60619 72.7185 9.9929C73.0701 10.3757 73.5154 10.5671 74.0544 10.5671C74.4372 10.5671 74.7615 10.489 75.0271 10.3327C75.2927 10.1765 75.5251 9.96947 75.7243 9.71165L76.3865 10.2273C75.8552 11.0437 75.0583 11.4519 73.9958 11.4519ZM73.8611 5.7683C73.4236 5.7683 73.0564 5.92845 72.7595 6.24876C72.4626 6.56517 72.279 7.01048 72.2087 7.5847H75.3845V7.50267C75.3533 6.95189 75.2048 6.52611 74.9392 6.22533C74.6736 5.92064 74.3142 5.7683 73.8611 5.7683ZM79.199 3.4597V4.99486H80.3826V5.83275H79.199V9.76439C79.199 10.0183 79.2517 10.2097 79.3572 10.3386C79.4626 10.4636 79.6423 10.5261 79.8962 10.5261C80.0212 10.5261 80.1931 10.5027 80.4118 10.4558V11.3347C80.1267 11.4128 79.8493 11.4519 79.5798 11.4519C79.0954 11.4519 78.7302 11.3054 78.4841 11.0124C78.238 10.7195 78.115 10.3035 78.115 9.76439V5.83275H76.9607V4.99486H78.115V3.4597H79.199ZM84.2849 11.4519C83.4255 11.4519 82.7263 11.1706 82.1872 10.6081C81.6482 10.0417 81.3786 9.28587 81.3786 8.34056V8.14134C81.3786 7.51244 81.4978 6.95189 81.7361 6.4597C81.9783 5.96361 82.3142 5.57689 82.7439 5.29955C83.1775 5.0183 83.6462 4.87767 84.1501 4.87767C84.9743 4.87767 85.615 5.14915 86.072 5.69212C86.529 6.23509 86.7576 7.01244 86.7576 8.02415V8.47533H82.4626C82.4783 9.10033 82.6599 9.60619 83.0076 9.9929C83.3591 10.3757 83.8044 10.5671 84.3435 10.5671C84.7263 10.5671 85.0505 10.489 85.3161 10.3327C85.5818 10.1765 85.8142 9.96947 86.0134 9.71165L86.6755 10.2273C86.1443 11.0437 85.3474 11.4519 84.2849 11.4519ZM84.1501 5.7683C83.7126 5.7683 83.3454 5.92845 83.0486 6.24876C82.7517 6.56517 82.5681 7.01048 82.4978 7.5847H85.6736V7.50267C85.6423 6.95189 85.4939 6.52611 85.2283 6.22533C84.9626 5.92064 84.6033 5.7683 84.1501 5.7683ZM91.0818 5.96751C90.9177 5.94017 90.74 5.9265 90.5486 5.9265C89.8376 5.9265 89.3552 6.22923 89.1013 6.8347V11.3347H88.0173V4.99486H89.072L89.0896 5.72728C89.4451 5.16087 89.949 4.87767 90.6013 4.87767C90.8122 4.87767 90.9724 4.90501 91.0818 4.9597V5.96751ZM95.7751 9.65306C95.7751 9.36009 95.6638 9.13353 95.4411 8.97337C95.2224 8.80931 94.8376 8.66869 94.2868 8.5515C93.74 8.43431 93.3044 8.29369 92.9802 8.12962C92.6599 7.96556 92.4216 7.77025 92.2654 7.54369C92.113 7.31712 92.0368 7.04759 92.0368 6.73509C92.0368 6.21556 92.2556 5.77611 92.6931 5.41673C93.1345 5.05736 93.697 4.87767 94.3806 4.87767C95.0993 4.87767 95.6814 5.06322 96.1267 5.43431C96.5759 5.8054 96.8005 6.28001 96.8005 6.85814H95.7107C95.7107 6.56126 95.5837 6.3054 95.3298 6.09056C95.0798 5.87572 94.7634 5.7683 94.3806 5.7683C93.9861 5.7683 93.6775 5.85423 93.4548 6.02611C93.2322 6.19798 93.1208 6.42259 93.1208 6.69994C93.1208 6.96165 93.2243 7.15892 93.4314 7.29173C93.6384 7.42455 94.0115 7.5515 94.5505 7.67259C95.0935 7.79369 95.5329 7.93822 95.8689 8.10619C96.2048 8.27415 96.4529 8.47728 96.613 8.71556C96.7771 8.94994 96.8591 9.23705 96.8591 9.57689C96.8591 10.1433 96.6326 10.5984 96.1794 10.9421C95.7263 11.282 95.1384 11.4519 94.4158 11.4519C93.9079 11.4519 93.4587 11.362 93.0681 11.1824C92.6775 11.0027 92.3708 10.7527 92.1482 10.4324C91.9294 10.1081 91.8201 9.75853 91.8201 9.38353H92.904C92.9236 9.74681 93.0681 10.0359 93.3376 10.2507C93.6111 10.4617 93.9704 10.5671 94.4158 10.5671C94.8259 10.5671 95.154 10.4851 95.4001 10.321C95.6501 10.1531 95.7751 9.9304 95.7751 9.65306ZM103.638 8.23509C103.638 9.20384 103.416 9.98314 102.97 10.573C102.525 11.1589 101.927 11.4519 101.177 11.4519C100.377 11.4519 99.7576 11.1687 99.3201 10.6023L99.2673 11.3347H98.2712V2.3347H99.3552V5.69212C99.7927 5.14915 100.396 4.87767 101.166 4.87767C101.935 4.87767 102.539 5.16869 102.976 5.75072C103.418 6.33275 103.638 7.12962 103.638 8.14134V8.23509ZM102.554 8.11205C102.554 7.37376 102.412 6.80345 102.127 6.40111C101.842 5.99876 101.431 5.79759 100.896 5.79759C100.181 5.79759 99.6677 6.12962 99.3552 6.79369V9.53587C99.6872 10.1999 100.205 10.532 100.908 10.532C101.427 10.532 101.832 10.3308 102.121 9.92845C102.41 9.52611 102.554 8.92064 102.554 8.11205ZM108.924 10.7077C108.502 11.2038 107.883 11.4519 107.066 11.4519C106.39 11.4519 105.875 11.2566 105.519 10.866C105.168 10.4714 104.99 9.88939 104.986 9.11986V4.99486H106.07V9.09056C106.07 10.0515 106.461 10.532 107.242 10.532C108.07 10.532 108.621 10.2234 108.894 9.60619V4.99486H109.978V11.3347H108.947L108.924 10.7077ZM114.695 5.96751C114.531 5.94017 114.353 5.9265 114.162 5.9265C113.451 5.9265 112.968 6.22923 112.715 6.8347V11.3347H111.631V4.99486H112.685L112.703 5.72728C113.058 5.16087 113.562 4.87767 114.215 4.87767C114.426 4.87767 114.586 4.90501 114.695 4.9597V5.96751ZM115.322 8.11205C115.322 7.12376 115.551 6.33861 116.008 5.75658C116.465 5.17064 117.07 4.87767 117.824 4.87767C118.597 4.87767 119.201 5.15111 119.635 5.69798L119.687 4.99486H120.677V11.1824C120.677 12.0027 120.433 12.6492 119.945 13.1218C119.461 13.5945 118.808 13.8308 117.988 13.8308C117.531 13.8308 117.084 13.7331 116.646 13.5378C116.209 13.3425 115.875 13.0749 115.644 12.7351L116.207 12.0847C116.672 12.6589 117.24 12.946 117.912 12.946C118.439 12.946 118.849 12.7976 119.142 12.5007C119.439 12.2038 119.588 11.7859 119.588 11.2468V10.7019C119.154 11.2019 118.562 11.4519 117.812 11.4519C117.07 11.4519 116.468 11.1531 116.008 10.5554C115.551 9.95775 115.322 9.1433 115.322 8.11205ZM116.412 8.23509C116.412 8.94994 116.558 9.51244 116.851 9.92259C117.144 10.3288 117.554 10.532 118.082 10.532C118.765 10.532 119.267 10.2214 119.588 9.60033V6.7058C119.256 6.10033 118.758 5.79759 118.093 5.79759C117.566 5.79759 117.154 6.00267 116.857 6.41283C116.56 6.82298 116.412 7.4304 116.412 8.23509Z" fill="#CCCCCC"/>
</g>
<g id="Group_2">
<path id="Vector_2" d="M49.8685 61.8905C51.2492 61.8905 52.3685 60.7712 52.3685 59.3905C52.3685 58.0098 51.2492 56.8905 49.8685 56.8905C48.4878 56.8905 47.3685 58.0098 47.3685 59.3905C47.3685 60.7712 48.4878 61.8905 49.8685 61.8905Z" fill="#999999"/>
<path id="Lyuban" d="M41.9896 61.6705H46.0325V62.5905H40.8587V54.0592H41.9896V61.6705ZM48.4349 61.0026L49.9114 56.2506H51.0716L48.5228 63.569C48.1282 64.6237 47.5013 65.151 46.6419 65.151L46.4368 65.1334L46.0325 65.0573V64.1784L46.3255 64.2018C46.6927 64.2018 46.9778 64.1276 47.181 63.9791C47.388 63.8307 47.5579 63.5592 47.6907 63.1647L47.931 62.5202L45.6693 56.2506H46.8528L48.4349 61.0026ZM55.9583 61.9635C55.5364 62.4596 54.9173 62.7077 54.1009 62.7077C53.4251 62.7077 52.9095 62.5123 52.554 62.1217C52.2025 61.7272 52.0247 61.1452 52.0208 60.3756V56.2506H53.1048V60.3463C53.1048 61.3073 53.4954 61.7877 54.2767 61.7877C55.1048 61.7877 55.6556 61.4791 55.929 60.862V56.2506H57.013V62.5905H55.9818L55.9583 61.9635ZM64.0325 59.4909C64.0325 60.4596 63.8099 61.2389 63.3646 61.8288C62.9193 62.4147 62.3216 62.7077 61.5716 62.7077C60.7708 62.7077 60.1517 62.4245 59.7142 61.858L59.6614 62.5905H58.6653V53.5905H59.7493V56.9479C60.1868 56.4049 60.7903 56.1334 61.5599 56.1334C62.3294 56.1334 62.9329 56.4245 63.3704 57.0065C63.8118 57.5885 64.0325 58.3854 64.0325 59.3971V59.4909ZM62.9485 59.3678C62.9485 58.6295 62.806 58.0592 62.5208 57.6569C62.2357 57.2545 61.8255 57.0534 61.2903 57.0534C60.5755 57.0534 60.0618 57.3854 59.7493 58.0495V60.7916C60.0814 61.4557 60.5989 61.7877 61.3021 61.7877C61.8216 61.7877 62.2259 61.5866 62.515 61.1842C62.804 60.7819 62.9485 60.1764 62.9485 59.3678ZM69.3177 62.5905C69.2552 62.4655 69.2044 62.2428 69.1653 61.9225C68.6614 62.4459 68.0599 62.7077 67.3607 62.7077C66.7357 62.7077 66.222 62.5319 65.8196 62.1803C65.4212 61.8248 65.222 61.3756 65.222 60.8327C65.222 60.1725 65.472 59.6608 65.972 59.2975C66.4759 58.9303 67.1829 58.7467 68.0931 58.7467H69.1478V58.2487C69.1478 57.8698 69.0345 57.569 68.8079 57.3463C68.5814 57.1198 68.2474 57.0065 67.806 57.0065C67.4193 57.0065 67.095 57.1041 66.8333 57.2995C66.5716 57.4948 66.4407 57.7311 66.4407 58.0084H65.3509C65.3509 57.692 65.4622 57.3873 65.6849 57.0944C65.9114 56.7975 66.2161 56.5631 66.5989 56.3913C66.9857 56.2194 67.4095 56.1334 67.8704 56.1334C68.6009 56.1334 69.1732 56.317 69.5872 56.6842C70.0013 57.0475 70.2161 57.5495 70.2318 58.1901V61.108C70.2318 61.6901 70.306 62.153 70.4544 62.4967V62.5905H69.3177ZM67.5189 61.7643C67.8587 61.7643 68.181 61.6764 68.4857 61.5006C68.7903 61.3248 69.011 61.0963 69.1478 60.8151V59.5143H68.2982C66.97 59.5143 66.306 59.903 66.306 60.6803C66.306 61.0202 66.4193 61.2858 66.6458 61.4772C66.8724 61.6686 67.1634 61.7643 67.5189 61.7643ZM72.9564 56.2506L72.9915 57.0475C73.4759 56.4381 74.1087 56.1334 74.89 56.1334C76.2298 56.1334 76.9056 56.8893 76.9173 58.401V62.5905H75.8333V58.3952C75.8294 57.9381 75.7239 57.6002 75.5169 57.3815C75.3138 57.1627 74.9954 57.0534 74.5618 57.0534C74.2103 57.0534 73.9017 57.1471 73.636 57.3346C73.3704 57.5221 73.1634 57.7682 73.015 58.0729V62.5905H71.931V56.2506H72.9564Z" fill="#CCCCCC"/>
</g>
<g id="Group_3">
<path id="Vector_3" d="M48.8907 83.8903C50.2714 83.8903 51.3907 82.771 51.3907 81.3903C51.3907 80.0096 50.2714 78.8903 48.8907 78.8903C47.51 78.8903 46.3907 80.0096 46.3907 81.3903C46.3907 82.771 47.51 83.8903 48.8907 83.8903Z" fill="#999999"/>
<path id="Chudovo" d="M46.1563 81.8833C46.0508 82.7856 45.7169 83.4829 45.1544 83.9751C44.5958 84.4634 43.8516 84.7075 42.9219 84.7075C41.9141 84.7075 41.1055 84.3462 40.4962 83.6235C39.8907 82.9009 39.588 81.9341 39.588 80.7231V79.9028C39.588 79.1099 39.7286 78.4126 40.0098 77.811C40.295 77.2095 40.6973 76.7485 41.2169 76.4282C41.7364 76.104 42.338 75.9419 43.0215 75.9419C43.9278 75.9419 44.6544 76.1958 45.2012 76.7036C45.7481 77.2075 46.0665 77.9067 46.1563 78.8013H45.0255C44.9278 78.1216 44.7149 77.6294 44.3868 77.3247C44.0626 77.02 43.6075 76.8677 43.0215 76.8677C42.3028 76.8677 41.7383 77.1333 41.3282 77.6645C40.9219 78.1958 40.7188 78.9517 40.7188 79.9321V80.7583C40.7188 81.6841 40.9122 82.4204 41.2989 82.9673C41.6856 83.5142 42.2266 83.7876 42.9219 83.7876C43.5469 83.7876 44.0255 83.647 44.3575 83.3657C44.6934 83.0806 44.9161 82.5864 45.0255 81.8833H46.1563ZM48.6114 79.0181C49.0919 78.4282 49.7169 78.1333 50.4864 78.1333C51.8262 78.1333 52.502 78.8892 52.5137 80.4009V84.5903H51.4297V80.395C51.4258 79.938 51.3204 79.6001 51.1133 79.3813C50.9102 79.1626 50.5919 79.0532 50.1583 79.0532C49.8067 79.0532 49.4981 79.147 49.2325 79.3345C48.9669 79.522 48.7598 79.7681 48.6114 80.0727V84.5903H47.5274V75.5903H48.6114V79.0181ZM58.0508 83.9634C57.629 84.4595 57.0098 84.7075 56.1934 84.7075C55.5176 84.7075 55.002 84.5122 54.6465 84.1216C54.295 83.727 54.1172 83.145 54.1133 82.3755V78.2505H55.1973V82.3462C55.1973 83.3071 55.588 83.7876 56.3692 83.7876C57.1973 83.7876 57.7481 83.479 58.0215 82.8618V78.2505H59.1055V84.5903H58.0743L58.0508 83.9634ZM60.4942 81.3677C60.4942 80.395 60.7247 79.6138 61.1856 79.0239C61.6465 78.4302 62.2501 78.1333 62.9962 78.1333C63.7383 78.1333 64.3262 78.3872 64.7598 78.895V75.5903H65.8438V84.5903H64.8477L64.795 83.9106C64.3614 84.4419 63.7579 84.7075 62.9844 84.7075C62.2501 84.7075 61.6505 84.4067 61.1856 83.8052C60.7247 83.2036 60.4942 82.4184 60.4942 81.4497V81.3677ZM61.5782 81.4907C61.5782 82.2095 61.7266 82.772 62.0235 83.1782C62.3204 83.5845 62.7305 83.7876 63.254 83.7876C63.9415 83.7876 64.4434 83.479 64.7598 82.8618V79.9497C64.4356 79.352 63.9376 79.0532 63.2657 79.0532C62.7344 79.0532 62.3204 79.2583 62.0235 79.6684C61.7266 80.0786 61.5782 80.686 61.5782 81.4907ZM67.2442 81.3618C67.2442 80.7407 67.3653 80.1821 67.6075 79.686C67.8536 79.1899 68.1934 78.8071 68.627 78.5376C69.0645 78.2681 69.5626 78.1333 70.1212 78.1333C70.9844 78.1333 71.6817 78.4321 72.213 79.0298C72.7481 79.6274 73.0157 80.4224 73.0157 81.4145V81.4907C73.0157 82.1079 72.8965 82.6626 72.6583 83.1548C72.4239 83.6431 72.086 84.0239 71.6446 84.2974C71.2071 84.5708 70.7032 84.7075 70.1329 84.7075C69.2735 84.7075 68.5762 84.4087 68.0411 83.811C67.5098 83.2134 67.2442 82.4224 67.2442 81.438V81.3618ZM68.334 81.4907C68.334 82.1938 68.4962 82.7583 68.8204 83.1841C69.1485 83.6099 69.586 83.8227 70.1329 83.8227C70.6837 83.8227 71.1212 83.6079 71.4454 83.1782C71.7696 82.7446 71.9317 82.1392 71.9317 81.3618C71.9317 80.6665 71.7657 80.104 71.4337 79.6743C71.1055 79.2407 70.668 79.0239 70.1212 79.0239C69.586 79.0239 69.1544 79.2368 68.8262 79.6626C68.4981 80.0884 68.334 80.6977 68.334 81.4907ZM76.3731 83.1196L77.9434 78.2505H79.0508L76.7774 84.5903H75.9512L73.6544 78.2505H74.7618L76.3731 83.1196ZM79.713 81.3618C79.713 80.7407 79.834 80.1821 80.0762 79.686C80.3223 79.1899 80.6622 78.8071 81.0958 78.5376C81.5333 78.2681 82.0313 78.1333 82.5899 78.1333C83.4532 78.1333 84.1505 78.4321 84.6817 79.0298C85.2169 79.6274 85.4844 80.4224 85.4844 81.4145V81.4907C85.4844 82.1079 85.3653 82.6626 85.127 83.1548C84.8926 83.6431 84.5547 84.0239 84.1133 84.2974C83.6758 84.5708 83.1719 84.7075 82.6016 84.7075C81.7422 84.7075 81.045 84.4087 80.5098 83.811C79.9786 83.2134 79.713 82.4224 79.713 81.438V81.3618ZM80.8028 81.4907C80.8028 82.1938 80.9649 82.7583 81.2891 83.1841C81.6172 83.6099 82.0547 83.8227 82.6016 83.8227C83.1524 83.8227 83.5899 83.6079 83.9141 83.1782C84.2383 82.7446 84.4005 82.1392 84.4005 81.3618C84.4005 80.6665 84.2344 80.104 83.9024 79.6743C83.5743 79.2407 83.1368 79.0239 82.5899 79.0239C82.0547 79.0239 81.6231 79.2368 81.295 79.6626C80.9669 80.0884 80.8028 80.6977 80.8028 81.4907Z" fill="#CCCCCC"/>
</g>
<g id="Group_4">
<path id="Vector_4" d="M10.1036 102.419C11.4843 102.419 12.6036 101.3 12.6036 99.9192C12.6036 98.5385 11.4843 97.4192 10.1036 97.4192C8.72293 97.4192 7.60364 98.5385 7.60364 99.9192C7.60364 101.3 8.72293 102.419 10.1036 102.419Z" fill="#999999"/>
<path id="Veliky Novgorod" d="M3.91809 101.625L6.35559 94.588H7.58606L4.422 103.119H3.4259L0.2677 94.588H1.49231L3.91809 101.625ZM10.9376 103.236C10.0782 103.236 9.37903 102.955 8.83997 102.393C8.3009 101.826 8.03137 101.07 8.03137 100.125V99.9258C8.03137 99.2969 8.15051 98.7364 8.38879 98.2442C8.63098 97.7481 8.96692 97.3614 9.39661 97.0841C9.8302 96.8028 10.299 96.6622 10.8029 96.6622C11.6271 96.6622 12.2677 96.9337 12.7247 97.4766C13.1818 98.0196 13.4103 98.7969 13.4103 99.8087V100.26H9.11536C9.13098 100.885 9.31262 101.391 9.66028 101.777C10.0118 102.16 10.4572 102.352 10.9962 102.352C11.379 102.352 11.7032 102.274 11.9689 102.117C12.2345 101.961 12.4669 101.754 12.6661 101.496L13.3282 102.012C12.797 102.828 12.0001 103.236 10.9376 103.236ZM10.8029 97.5528C10.3654 97.5528 9.99817 97.713 9.70129 98.0333C9.40442 98.3497 9.22083 98.795 9.15051 99.3692H12.3263V99.2872C12.295 98.7364 12.1466 98.3106 11.881 98.0098C11.6154 97.7051 11.256 97.5528 10.8029 97.5528ZM15.8478 103.119H14.7638V94.1192H15.8478V103.119ZM18.7657 103.119H17.6818V96.7794H18.7657V103.119ZM17.5939 95.0977C17.5939 94.9219 17.6466 94.7735 17.7521 94.6524C17.8615 94.5313 18.0216 94.4708 18.2325 94.4708C18.4435 94.4708 18.6036 94.5313 18.713 94.6524C18.8224 94.7735 18.8771 94.9219 18.8771 95.0977C18.8771 95.2735 18.8224 95.42 18.713 95.5372C18.6036 95.6544 18.4435 95.713 18.2325 95.713C18.0216 95.713 17.8615 95.6544 17.7521 95.5372C17.6466 95.42 17.5939 95.2735 17.5939 95.0977ZM22.2755 100.184L21.5958 100.893V103.119H20.5118V94.1192H21.5958V99.5626L22.1759 98.8653L24.1505 96.7794H25.4689L23.0021 99.4278L25.756 103.119H24.4845L22.2755 100.184ZM28.6622 101.531L30.1388 96.7794H31.299L28.7501 104.098C28.3556 105.152 27.7286 105.68 26.8693 105.68L26.6642 105.662L26.2599 105.586V104.707L26.5529 104.731C26.92 104.731 27.2052 104.656 27.4083 104.508C27.6154 104.359 27.7853 104.088 27.9181 103.693L28.1583 103.049L25.8966 96.7794H27.0802L28.6622 101.531ZM41.9747 103.119H40.8439L36.549 96.545V103.119H35.4181V94.588H36.549L40.8556 101.191V94.588H41.9747V103.119ZM43.5157 99.8907C43.5157 99.2696 43.6368 98.711 43.879 98.2149C44.1251 97.7188 44.465 97.336 44.8986 97.0665C45.3361 96.7969 45.8341 96.6622 46.3927 96.6622C47.256 96.6622 47.9532 96.961 48.4845 97.5587C49.0197 98.1563 49.2872 98.9512 49.2872 99.9434V100.02C49.2872 100.637 49.1681 101.191 48.9298 101.684C48.6954 102.172 48.3575 102.553 47.9161 102.826C47.4786 103.1 46.9747 103.236 46.4044 103.236C45.545 103.236 44.8478 102.938 44.3126 102.34C43.7814 101.742 43.5157 100.951 43.5157 99.9669V99.8907ZM44.6056 100.02C44.6056 100.723 44.7677 101.287 45.0919 101.713C45.42 102.139 45.8575 102.352 46.4044 102.352C46.9552 102.352 47.3927 102.137 47.7169 101.707C48.0411 101.274 48.2032 100.668 48.2032 99.8907C48.2032 99.1954 48.0372 98.6329 47.7052 98.2032C47.3771 97.7696 46.9396 97.5528 46.3927 97.5528C45.8575 97.5528 45.4259 97.7657 45.0978 98.1915C44.7697 98.6173 44.6056 99.2266 44.6056 100.02ZM52.6447 101.649L54.215 96.7794H55.3224L53.049 103.119H52.2228L49.9259 96.7794H51.0333L52.6447 101.649ZM56.0255 99.8966C56.0255 98.9083 56.254 98.1231 56.7111 97.5411C57.1681 96.9551 57.7736 96.6622 58.5275 96.6622C59.3009 96.6622 59.9044 96.9356 60.338 97.4825L60.3907 96.7794H61.381V102.967C61.381 103.787 61.1368 104.434 60.6486 104.906C60.1642 105.379 59.5118 105.615 58.6915 105.615C58.2345 105.615 57.7872 105.518 57.3497 105.322C56.9122 105.127 56.5782 104.859 56.3478 104.52L56.9103 103.869C57.3751 104.443 57.9435 104.731 58.6154 104.731C59.1427 104.731 59.5529 104.582 59.8458 104.285C60.1427 103.988 60.2911 103.57 60.2911 103.031V102.486C59.8575 102.986 59.2657 103.236 58.5157 103.236C57.7736 103.236 57.172 102.938 56.7111 102.34C56.254 101.742 56.0255 100.928 56.0255 99.8966ZM57.1154 100.02C57.1154 100.734 57.2618 101.297 57.5548 101.707C57.8478 102.113 58.2579 102.316 58.7853 102.316C59.4689 102.316 59.9708 102.006 60.2911 101.385V98.4903C59.9591 97.8848 59.4611 97.5821 58.797 97.5821C58.2697 97.5821 57.8575 97.7872 57.5607 98.1973C57.2638 98.6075 57.1154 99.2149 57.1154 100.02ZM62.7345 99.8907C62.7345 99.2696 62.8556 98.711 63.0978 98.2149C63.3439 97.7188 63.6837 97.336 64.1173 97.0665C64.5548 96.7969 65.0529 96.6622 65.6115 96.6622C66.4747 96.6622 67.172 96.961 67.7032 97.5587C68.2384 98.1563 68.506 98.9512 68.506 99.9434V100.02C68.506 100.637 68.3868 101.191 68.1486 101.684C67.9142 102.172 67.5763 102.553 67.1349 102.826C66.6974 103.1 66.1935 103.236 65.6232 103.236C64.7638 103.236 64.0665 102.938 63.5314 102.34C63.0001 101.742 62.7345 100.951 62.7345 99.9669V99.8907ZM63.8243 100.02C63.8243 100.723 63.9865 101.287 64.3107 101.713C64.6388 102.139 65.0763 102.352 65.6232 102.352C66.174 102.352 66.6115 102.137 66.9357 101.707C67.2599 101.274 67.422 100.668 67.422 99.8907C67.422 99.1954 67.256 98.6329 66.924 98.2032C66.5958 97.7696 66.1583 97.5528 65.6115 97.5528C65.0763 97.5528 64.6447 97.7657 64.3165 98.1915C63.9884 98.6173 63.8243 99.2266 63.8243 100.02ZM72.9298 97.752C72.7657 97.7247 72.588 97.711 72.3966 97.711C71.6857 97.711 71.2032 98.0137 70.9493 98.6192V103.119H69.8654V96.7794H70.92L70.9376 97.5118C71.2931 96.9454 71.797 96.6622 72.4493 96.6622C72.6603 96.6622 72.8204 96.6895 72.9298 96.7442V97.752ZM73.5275 99.8907C73.5275 99.2696 73.6486 98.711 73.8907 98.2149C74.1368 97.7188 74.4767 97.336 74.9103 97.0665C75.3478 96.7969 75.8458 96.6622 76.4044 96.6622C77.2677 96.6622 77.965 96.961 78.4962 97.5587C79.0314 98.1563 79.299 98.9512 79.299 99.9434V100.02C79.299 100.637 79.1798 101.191 78.9415 101.684C78.7072 102.172 78.3693 102.553 77.9279 102.826C77.4904 103.1 76.9865 103.236 76.4161 103.236C75.5568 103.236 74.8595 102.938 74.3243 102.34C73.7931 101.742 73.5275 100.951 73.5275 99.9669V99.8907ZM74.6173 100.02C74.6173 100.723 74.7794 101.287 75.1036 101.713C75.4318 102.139 75.8693 102.352 76.4161 102.352C76.9669 102.352 77.4044 102.137 77.7286 101.707C78.0529 101.274 78.215 100.668 78.215 99.8907C78.215 99.1954 78.049 98.6329 77.7169 98.2032C77.3888 97.7696 76.9513 97.5528 76.4044 97.5528C75.8693 97.5528 75.4376 97.7657 75.1095 98.1915C74.7814 98.6173 74.6173 99.2266 74.6173 100.02ZM80.3947 99.8966C80.3947 98.9239 80.6251 98.1426 81.0861 97.5528C81.547 96.9591 82.1505 96.6622 82.8966 96.6622C83.6388 96.6622 84.2267 96.9161 84.6603 97.4239V94.1192H85.7443V103.119H84.7482L84.6954 102.44C84.2618 102.971 83.6583 103.236 82.8849 103.236C82.1505 103.236 81.5509 102.936 81.0861 102.334C80.6251 101.732 80.3947 100.947 80.3947 99.9786V99.8966ZM81.4786 100.02C81.4786 100.738 81.6271 101.301 81.924 101.707C82.2208 102.113 82.631 102.316 83.1544 102.316C83.8419 102.316 84.3439 102.008 84.6603 101.391V98.4786C84.3361 97.8809 83.838 97.5821 83.1661 97.5821C82.6349 97.5821 82.2208 97.7872 81.924 98.1973C81.6271 98.6075 81.4786 99.2149 81.4786 100.02Z" fill="#CCCCCC"/>
</g>
<g id="Group_5">
<path id="Vector_5" d="M33.7412 180.076C35.1219 180.076 36.2412 178.957 36.2412 177.576C36.2412 176.196 35.1219 175.076 33.7412 175.076C32.3605 175.076 31.2412 176.196 31.2412 177.576C31.2412 178.957 32.3605 180.076 33.7412 180.076Z" fill="#CCCCCC"/>
<path id="Valdai" d="M27.5557 179.282L29.9932 172.245H31.2236L28.0596 180.776H27.0635L23.9053 172.245H25.1299L27.5557 179.282ZM35.8467 180.776C35.7842 180.651 35.7334 180.429 35.6943 180.108C35.1904 180.632 34.5889 180.894 33.8896 180.894C33.2646 180.894 32.751 180.718 32.3486 180.366C31.9502 180.011 31.751 179.562 31.751 179.019C31.751 178.358 32.001 177.847 32.501 177.483C33.0049 177.116 33.7119 176.933 34.6221 176.933H35.6768V176.435C35.6768 176.056 35.5635 175.755 35.3369 175.532C35.1104 175.306 34.7764 175.192 34.335 175.192C33.9482 175.192 33.624 175.29 33.3623 175.485C33.1006 175.681 32.9697 175.917 32.9697 176.194H31.8799C31.8799 175.878 31.9912 175.573 32.2139 175.28C32.4404 174.983 32.7451 174.749 33.1279 174.577C33.5146 174.405 33.9385 174.319 34.3994 174.319C35.1299 174.319 35.7021 174.503 36.1162 174.87C36.5303 175.233 36.7451 175.735 36.7607 176.376V179.294C36.7607 179.876 36.835 180.339 36.9834 180.683V180.776H35.8467ZM34.0479 179.95C34.3877 179.95 34.71 179.862 35.0146 179.687C35.3193 179.511 35.54 179.282 35.6768 179.001V177.7H34.8271C33.499 177.7 32.835 178.089 32.835 178.866C32.835 179.206 32.9482 179.472 33.1748 179.663C33.4014 179.855 33.6924 179.95 34.0479 179.95ZM39.6377 180.776H38.5537V171.776H39.6377V180.776ZM41.1143 177.554C41.1143 176.581 41.3447 175.8 41.8057 175.21C42.2666 174.616 42.8701 174.319 43.6162 174.319C44.3584 174.319 44.9463 174.573 45.3799 175.081V171.776H46.4639V180.776H45.4678L45.415 180.097C44.9814 180.628 44.3779 180.894 43.6045 180.894C42.8701 180.894 42.2705 180.593 41.8057 179.991C41.3447 179.39 41.1143 178.605 41.1143 177.636V177.554ZM42.1982 177.677C42.1982 178.396 42.3467 178.958 42.6436 179.364C42.9404 179.771 43.3506 179.974 43.874 179.974C44.5615 179.974 45.0635 179.665 45.3799 179.048V176.136C45.0557 175.538 44.5576 175.239 43.8857 175.239C43.3545 175.239 42.9404 175.444 42.6436 175.855C42.3467 176.265 42.1982 176.872 42.1982 177.677ZM52.0654 180.776C52.0029 180.651 51.9521 180.429 51.9131 180.108C51.4092 180.632 50.8076 180.894 50.1084 180.894C49.4834 180.894 48.9697 180.718 48.5674 180.366C48.1689 180.011 47.9697 179.562 47.9697 179.019C47.9697 178.358 48.2197 177.847 48.7197 177.483C49.2236 177.116 49.9307 176.933 50.8408 176.933H51.8955V176.435C51.8955 176.056 51.7822 175.755 51.5557 175.532C51.3291 175.306 50.9951 175.192 50.5537 175.192C50.167 175.192 49.8428 175.29 49.5811 175.485C49.3193 175.681 49.1885 175.917 49.1885 176.194H48.0986C48.0986 175.878 48.21 175.573 48.4326 175.28C48.6592 174.983 48.9639 174.749 49.3467 174.577C49.7334 174.405 50.1572 174.319 50.6182 174.319C51.3486 174.319 51.9209 174.503 52.335 174.87C52.749 175.233 52.9639 175.735 52.9795 176.376V179.294C52.9795 179.876 53.0537 180.339 53.2021 180.683V180.776H52.0654ZM50.2666 179.95C50.6064 179.95 50.9287 179.862 51.2334 179.687C51.5381 179.511 51.7588 179.282 51.8955 179.001V177.7H51.0459C49.7178 177.7 49.0537 178.089 49.0537 178.866C49.0537 179.206 49.167 179.472 49.3936 179.663C49.6201 179.855 49.9111 179.95 50.2666 179.95ZM55.8564 180.776H54.7725V174.437H55.8564V180.776ZM54.6846 172.755C54.6846 172.579 54.7373 172.431 54.8428 172.31C54.9521 172.188 55.1123 172.128 55.3232 172.128C55.5342 172.128 55.6943 172.188 55.8037 172.31C55.9131 172.431 55.9678 172.579 55.9678 172.755C55.9678 172.931 55.9131 173.077 55.8037 173.194C55.6943 173.312 55.5342 173.37 55.3232 173.37C55.1123 173.37 54.9521 173.312 54.8428 173.194C54.7373 173.077 54.6846 172.931 54.6846 172.755Z" fill="#CCCCCC"/>
</g>
<g id="Group_6">
<path id="Vector_6" d="M42.7372 243.842C44.1179 243.842 45.2372 242.723 45.2372 241.342C45.2372 239.961 44.1179 238.842 42.7372 238.842C41.3565 238.842 40.2372 239.961 40.2372 241.342C40.2372 242.723 41.3565 243.842 42.7372 243.842Z" fill="#999999"/>
<path id="Pochinok" d="M34.8524 241.202V244.542H33.7274V236.011H36.8739C37.8075 236.011 38.538 236.249 39.0653 236.725C39.5966 237.202 39.8622 237.833 39.8622 238.618C39.8622 239.446 39.6024 240.085 39.0829 240.534C38.5673 240.979 37.8271 241.202 36.8622 241.202H34.8524ZM34.8524 240.282H36.8739C37.4755 240.282 37.9364 240.141 38.2567 239.86C38.5771 239.575 38.7372 239.165 38.7372 238.63C38.7372 238.122 38.5771 237.716 38.2567 237.411C37.9364 237.106 37.497 236.948 36.9384 236.936H34.8524V240.282ZM40.7587 241.313C40.7587 240.692 40.8798 240.134 41.122 239.637C41.3681 239.141 41.7079 238.759 42.1415 238.489C42.579 238.22 43.0771 238.085 43.6357 238.085C44.4989 238.085 45.1962 238.384 45.7274 238.981C46.2626 239.579 46.5302 240.374 46.5302 241.366V241.442C46.5302 242.059 46.411 242.614 46.1728 243.106C45.9384 243.595 45.6005 243.975 45.1591 244.249C44.7216 244.522 44.2177 244.659 43.6474 244.659C42.788 244.659 42.0907 244.36 41.5556 243.762C41.0243 243.165 40.7587 242.374 40.7587 241.389V241.313ZM41.8485 241.442C41.8485 242.145 42.0107 242.71 42.3349 243.136C42.663 243.561 43.1005 243.774 43.6474 243.774C44.1982 243.774 44.6357 243.559 44.9599 243.13C45.2841 242.696 45.4462 242.091 45.4462 241.313C45.4462 240.618 45.2802 240.055 44.9482 239.626C44.62 239.192 44.1825 238.975 43.6357 238.975C43.1005 238.975 42.6689 239.188 42.3407 239.614C42.0126 240.04 41.8485 240.649 41.8485 241.442ZM50.4325 243.774C50.8192 243.774 51.1571 243.657 51.4462 243.423C51.7353 243.188 51.8954 242.895 51.9267 242.544H52.9521C52.9325 242.907 52.8075 243.253 52.5771 243.581C52.3466 243.909 52.038 244.171 51.6513 244.366C51.2685 244.561 50.8622 244.659 50.4325 244.659C49.5692 244.659 48.8817 244.372 48.37 243.798C47.8622 243.22 47.6083 242.43 47.6083 241.43V241.249C47.6083 240.632 47.7216 240.083 47.9482 239.602C48.1747 239.122 48.4989 238.749 48.9208 238.483C49.3466 238.218 49.8485 238.085 50.4267 238.085C51.1376 238.085 51.7274 238.298 52.1962 238.723C52.6689 239.149 52.9208 239.702 52.9521 240.382H51.9267C51.8954 239.971 51.7392 239.636 51.4579 239.374C51.1806 239.108 50.8368 238.975 50.4267 238.975C49.8759 238.975 49.4482 239.175 49.1435 239.573C48.8427 239.968 48.6923 240.54 48.6923 241.29V241.495C48.6923 242.225 48.8427 242.788 49.1435 243.182C49.4442 243.577 49.8739 243.774 50.4325 243.774ZM55.2548 238.97C55.7353 238.38 56.3603 238.085 57.1298 238.085C58.4696 238.085 59.1454 238.841 59.1571 240.352V244.542H58.0732V240.346C58.0692 239.889 57.9638 239.552 57.7567 239.333C57.5536 239.114 57.2353 239.005 56.8017 239.005C56.4501 239.005 56.1415 239.098 55.8759 239.286C55.6103 239.473 55.4032 239.72 55.2548 240.024V244.542H54.1708V235.542H55.2548V238.97ZM61.9579 244.542H60.8739V238.202H61.9579V244.542ZM60.786 236.52C60.786 236.345 60.8388 236.196 60.9442 236.075C61.0536 235.954 61.2138 235.893 61.4247 235.893C61.6357 235.893 61.7958 235.954 61.9052 236.075C62.0146 236.196 62.0692 236.345 62.0692 236.52C62.0692 236.696 62.0146 236.843 61.9052 236.96C61.7958 237.077 61.6357 237.136 61.4247 237.136C61.2138 237.136 61.0536 237.077 60.9442 236.96C60.8388 236.843 60.786 236.696 60.786 236.52ZM64.7235 238.202L64.7587 238.999C65.2431 238.389 65.8759 238.085 66.6571 238.085C67.997 238.085 68.6728 238.841 68.6845 240.352V244.542H67.6005V240.346C67.5966 239.889 67.4911 239.552 67.2841 239.333C67.081 239.114 66.7626 239.005 66.329 239.005C65.9774 239.005 65.6689 239.098 65.4032 239.286C65.1376 239.473 64.9306 239.72 64.7821 240.024V244.542H63.6982V238.202H64.7235ZM70.0321 241.313C70.0321 240.692 70.1532 240.134 70.3954 239.637C70.6415 239.141 70.9814 238.759 71.4149 238.489C71.8524 238.22 72.3505 238.085 72.9091 238.085C73.7724 238.085 74.4696 238.384 75.0009 238.981C75.536 239.579 75.8036 240.374 75.8036 241.366V241.442C75.8036 242.059 75.6845 242.614 75.4462 243.106C75.2118 243.595 74.8739 243.975 74.4325 244.249C73.995 244.522 73.4911 244.659 72.9208 244.659C72.0614 244.659 71.3642 244.36 70.829 243.762C70.2978 243.165 70.0321 242.374 70.0321 241.389V241.313ZM71.122 241.442C71.122 242.145 71.2841 242.71 71.6083 243.136C71.9364 243.561 72.3739 243.774 72.9208 243.774C73.4716 243.774 73.9091 243.559 74.2333 243.13C74.5575 242.696 74.7196 242.091 74.7196 241.313C74.7196 240.618 74.5536 240.055 74.2216 239.626C73.8935 239.192 73.456 238.975 72.9091 238.975C72.3739 238.975 71.9423 239.188 71.6142 239.614C71.286 240.04 71.122 240.649 71.122 241.442ZM78.9325 241.606L78.2528 242.315V244.542H77.1689V235.542H78.2528V240.985L78.8329 240.288L80.8075 238.202H82.1259L79.6591 240.85L82.413 244.542H81.1415L78.9325 241.606Z" fill="#CCCCCC"/>
</g>
<g id="Group_7">
<path id="Vector_7" d="M36.1558 270.208C37.5365 270.208 38.6558 269.089 38.6558 267.708C38.6558 266.327 37.5365 265.208 36.1558 265.208C34.7751 265.208 33.6558 266.327 33.6558 267.708C33.6558 269.089 34.7751 270.208 36.1558 270.208Z" fill="#999999"/>
<path id="Torzhok" d="M33.0406 263.302H30.2984V270.908H29.1792V263.302H26.4429V262.377H33.0406V263.302ZM33.2632 267.679C33.2632 267.058 33.3843 266.5 33.6265 266.004C33.8726 265.507 34.2124 265.125 34.646 264.855C35.0835 264.586 35.5816 264.451 36.1402 264.451C37.0034 264.451 37.7007 264.75 38.232 265.347C38.7671 265.945 39.0347 266.74 39.0347 267.732V267.808C39.0347 268.425 38.9156 268.98 38.6773 269.472C38.4429 269.961 38.105 270.341 37.6636 270.615C37.2261 270.888 36.7222 271.025 36.1519 271.025C35.2925 271.025 34.5952 270.726 34.0601 270.129C33.5288 269.531 33.2632 268.74 33.2632 267.756V267.679ZM34.3531 267.808C34.3531 268.511 34.5152 269.076 34.8394 269.502C35.1675 269.927 35.605 270.14 36.1519 270.14C36.7027 270.14 37.1402 269.925 37.4644 269.496C37.7886 269.062 37.9507 268.457 37.9507 267.679C37.9507 266.984 37.7847 266.422 37.4527 265.992C37.1245 265.558 36.687 265.341 36.1402 265.341C35.605 265.341 35.1734 265.554 34.8452 265.98C34.5171 266.406 34.3531 267.015 34.3531 267.808ZM43.4585 265.541C43.2945 265.513 43.1167 265.5 42.9253 265.5C42.2144 265.5 41.732 265.802 41.4781 266.408V270.908H40.3941V264.568H41.4488L41.4663 265.3C41.8218 264.734 42.3257 264.451 42.9781 264.451C43.189 264.451 43.3492 264.478 43.4585 264.533V265.541ZM45.48 270.023H49.189V270.908H44.1558V270.111L47.6538 265.464H44.2085V264.568H49.0132V265.336L45.48 270.023ZM51.4976 265.336C51.9781 264.746 52.6031 264.451 53.3726 264.451C54.7124 264.451 55.3882 265.207 55.3999 266.718V270.908H54.3159V266.713C54.312 266.256 54.2066 265.918 53.9995 265.699C53.7964 265.48 53.4781 265.371 53.0445 265.371C52.6929 265.371 52.3843 265.464 52.1187 265.652C51.8531 265.839 51.646 266.086 51.4976 266.39V270.908H50.4136V261.908H51.4976V265.336ZM56.7359 267.679C56.7359 267.058 56.857 266.5 57.0992 266.004C57.3452 265.507 57.6851 265.125 58.1187 264.855C58.5562 264.586 59.0542 264.451 59.6128 264.451C60.4761 264.451 61.1734 264.75 61.7046 265.347C62.2398 265.945 62.5074 266.74 62.5074 267.732V267.808C62.5074 268.425 62.3882 268.98 62.1499 269.472C61.9156 269.961 61.5777 270.341 61.1363 270.615C60.6988 270.888 60.1949 271.025 59.6245 271.025C58.7652 271.025 58.0679 270.726 57.5327 270.129C57.0015 269.531 56.7359 268.74 56.7359 267.756V267.679ZM57.8257 267.808C57.8257 268.511 57.9878 269.076 58.312 269.502C58.6402 269.927 59.0777 270.14 59.6245 270.14C60.1753 270.14 60.6128 269.925 60.937 269.496C61.2613 269.062 61.4234 268.457 61.4234 267.679C61.4234 266.984 61.2574 266.422 60.9253 265.992C60.5972 265.558 60.1597 265.341 59.6128 265.341C59.0777 265.341 58.646 265.554 58.3179 265.98C57.9898 266.406 57.8257 267.015 57.8257 267.808ZM65.6363 267.972L64.9566 268.681V270.908H63.8726V261.908H64.9566V267.351L65.5367 266.654L67.5113 264.568H68.8296L66.3628 267.216L69.1167 270.908H67.8452L65.6363 267.972Z" fill="#CCCCCC"/>
</g>
<g id="Group_8">
<path id="Vector_8" d="M54.3013 383.69C55.682 383.69 56.8013 382.571 56.8013 381.19C56.8013 379.809 55.682 378.69 54.3013 378.69C52.9206 378.69 51.8013 379.809 51.8013 381.19C51.8013 382.571 52.9206 383.69 54.3013 383.69Z" fill="#999999"/>
<path id="Chernaya Gryaz" d="M51.5669 381.683C51.4615 382.585 51.1275 383.282 50.565 383.775C50.0064 384.263 49.2622 384.507 48.3326 384.507C47.3247 384.507 46.5161 384.146 45.9068 383.423C45.3013 382.7 44.9986 381.734 44.9986 380.523V379.702C44.9986 378.909 45.1392 378.212 45.4204 377.611C45.7056 377.009 46.1079 376.548 46.6275 376.228C47.147 375.904 47.7486 375.741 48.4322 375.741C49.3384 375.741 50.065 375.995 50.6118 376.503C51.1587 377.007 51.4771 377.706 51.5669 378.601H50.4361C50.3384 377.921 50.1255 377.429 49.7974 377.124C49.4732 376.82 49.0181 376.667 48.4322 376.667C47.7134 376.667 47.149 376.933 46.7388 377.464C46.3326 377.995 46.1294 378.751 46.1294 379.732V380.558C46.1294 381.484 46.3228 382.22 46.7095 382.767C47.0962 383.314 47.6372 383.587 48.3326 383.587C48.9576 383.587 49.4361 383.447 49.7681 383.165C50.104 382.88 50.3267 382.386 50.4361 381.683H51.5669ZM54.022 378.818C54.5025 378.228 55.1275 377.933 55.897 377.933C57.2368 377.933 57.9126 378.689 57.9243 380.2V384.39H56.8404V380.195C56.8365 379.738 56.731 379.4 56.524 379.181C56.3208 378.962 56.0025 378.853 55.5689 378.853C55.2173 378.853 54.9087 378.947 54.6431 379.134C54.3775 379.322 54.1704 379.568 54.022 379.872V384.39H52.938V375.39H54.022V378.818ZM62.1783 384.507C61.3189 384.507 60.6197 384.226 60.0806 383.663C59.5415 383.097 59.272 382.341 59.272 381.396V381.197C59.272 380.568 59.3911 380.007 59.6294 379.515C59.8716 379.019 60.2076 378.632 60.6372 378.355C61.0708 378.073 61.5396 377.933 62.0435 377.933C62.8677 377.933 63.5083 378.204 63.9654 378.747C64.4224 379.29 64.6509 380.068 64.6509 381.079V381.531H60.356C60.3716 382.156 60.5533 382.661 60.9009 383.048C61.2525 383.431 61.6978 383.622 62.2368 383.622C62.6197 383.622 62.9439 383.544 63.2095 383.388C63.4751 383.232 63.7076 383.025 63.9068 382.767L64.5689 383.282C64.0376 384.099 63.2408 384.507 62.1783 384.507ZM62.0435 378.823C61.606 378.823 61.2388 378.984 60.9419 379.304C60.6451 379.62 60.4615 380.066 60.3911 380.64H63.5669V380.558C63.5357 380.007 63.3872 379.581 63.1216 379.281C62.856 378.976 62.4966 378.823 62.0435 378.823ZM68.9751 379.023C68.8111 378.995 68.6333 378.982 68.4419 378.982C67.731 378.982 67.2486 379.284 66.9947 379.89V384.39H65.9107V378.05H66.9654L66.9829 378.782C67.3384 378.216 67.8423 377.933 68.4947 377.933C68.7056 377.933 68.8658 377.96 68.9751 378.015V379.023ZM71.0025 378.05L71.0376 378.847C71.522 378.238 72.1548 377.933 72.9361 377.933C74.2759 377.933 74.9517 378.689 74.9634 380.2V384.39H73.8794V380.195C73.8755 379.738 73.7701 379.4 73.563 379.181C73.3599 378.962 73.0415 378.853 72.6079 378.853C72.2564 378.853 71.9478 378.947 71.6822 379.134C71.4165 379.322 71.2095 379.568 71.0611 379.872V384.39H69.9771V378.05H71.0025ZM80.5122 384.39C80.4497 384.265 80.399 384.042 80.3599 383.722C79.856 384.245 79.2544 384.507 78.5552 384.507C77.9302 384.507 77.4165 384.331 77.0142 383.98C76.6158 383.624 76.4165 383.175 76.4165 382.632C76.4165 381.972 76.6665 381.46 77.1665 381.097C77.6704 380.73 78.3775 380.546 79.2876 380.546H80.3423V380.048C80.3423 379.669 80.229 379.368 80.0025 379.146C79.7759 378.919 79.4419 378.806 79.0005 378.806C78.6138 378.806 78.2896 378.904 78.0279 379.099C77.7661 379.294 77.6353 379.531 77.6353 379.808H76.5454C76.5454 379.491 76.6568 379.187 76.8794 378.894C77.106 378.597 77.4107 378.363 77.7935 378.191C78.1802 378.019 78.604 377.933 79.065 377.933C79.7954 377.933 80.3677 378.116 80.7818 378.484C81.1958 378.847 81.4107 379.349 81.4263 379.99V382.907C81.4263 383.49 81.5005 383.952 81.649 384.296V384.39H80.5122ZM78.7134 383.564C79.0533 383.564 79.3755 383.476 79.6802 383.3C79.9849 383.124 80.2056 382.896 80.3423 382.615V381.314H79.4927C78.1646 381.314 77.5005 381.702 77.5005 382.48C77.5005 382.82 77.6138 383.085 77.8404 383.277C78.0669 383.468 78.3579 383.564 78.7134 383.564ZM85.106 382.802L86.5826 378.05H87.7427L85.1939 385.368C84.7993 386.423 84.1724 386.95 83.313 386.95L83.1079 386.933L82.7036 386.857V385.978L82.9966 386.001C83.3638 386.001 83.649 385.927 83.8521 385.779C84.0591 385.63 84.229 385.359 84.3618 384.964L84.6021 384.32L82.3404 378.05H83.524L85.106 382.802ZM92.5357 384.39C92.4732 384.265 92.4224 384.042 92.3833 383.722C91.8794 384.245 91.2779 384.507 90.5786 384.507C89.9536 384.507 89.44 384.331 89.0376 383.98C88.6392 383.624 88.44 383.175 88.44 382.632C88.44 381.972 88.69 381.46 89.19 381.097C89.6939 380.73 90.4009 380.546 91.3111 380.546H92.3658V380.048C92.3658 379.669 92.2525 379.368 92.0259 379.146C91.7993 378.919 91.4654 378.806 91.024 378.806C90.6372 378.806 90.313 378.904 90.0513 379.099C89.7896 379.294 89.6587 379.531 89.6587 379.808H88.5689C88.5689 379.491 88.6802 379.187 88.9029 378.894C89.1294 378.597 89.4341 378.363 89.8169 378.191C90.2036 378.019 90.6275 377.933 91.0884 377.933C91.8189 377.933 92.3911 378.116 92.8052 378.484C93.2193 378.847 93.4341 379.349 93.4497 379.99V382.907C93.4497 383.49 93.524 383.952 93.6724 384.296V384.39H92.5357ZM90.7368 383.564C91.0767 383.564 91.399 383.476 91.7036 383.3C92.0083 383.124 92.229 382.896 92.3658 382.615V381.314H91.5161C90.188 381.314 89.524 381.702 89.524 382.48C89.524 382.82 89.6372 383.085 89.8638 383.277C90.0904 383.468 90.3814 383.564 90.7368 383.564ZM104.594 383.271C104.305 383.685 103.901 383.995 103.381 384.202C102.866 384.406 102.264 384.507 101.577 384.507C100.881 384.507 100.264 384.345 99.7251 384.021C99.1861 383.693 98.7681 383.228 98.4712 382.626C98.1783 382.025 98.0279 381.327 98.0201 380.534V379.79C98.0201 378.505 98.3189 377.509 98.9165 376.802C99.5181 376.095 100.362 375.741 101.448 375.741C102.338 375.741 103.055 375.97 103.598 376.427C104.141 376.88 104.473 377.525 104.594 378.361H103.469C103.258 377.232 102.586 376.667 101.454 376.667C100.7 376.667 100.127 376.933 99.7368 377.464C99.3501 377.991 99.1548 378.757 99.1509 379.761V380.458C99.1509 381.415 99.3697 382.177 99.8072 382.743C100.245 383.306 100.836 383.587 101.583 383.587C102.004 383.587 102.374 383.54 102.69 383.447C103.006 383.353 103.268 383.195 103.475 382.972V381.056H101.501V380.142H104.594V383.271ZM109.37 379.023C109.206 378.995 109.028 378.982 108.836 378.982C108.126 378.982 107.643 379.284 107.389 379.89V384.39H106.305V378.05H107.36L107.377 378.782C107.733 378.216 108.237 377.933 108.889 377.933C109.1 377.933 109.26 377.96 109.37 378.015V379.023ZM112.551 382.802L114.028 378.05H115.188L112.639 385.368C112.245 386.423 111.618 386.95 110.758 386.95L110.553 386.933L110.149 386.857V385.978L110.442 386.001C110.809 386.001 111.094 385.927 111.297 385.779C111.504 385.63 111.674 385.359 111.807 384.964L112.047 384.32L109.786 378.05H110.969L112.551 382.802ZM119.981 384.39C119.918 384.265 119.868 384.042 119.829 383.722C119.325 384.245 118.723 384.507 118.024 384.507C117.399 384.507 116.885 384.331 116.483 383.98C116.085 383.624 115.885 383.175 115.885 382.632C115.885 381.972 116.135 381.46 116.635 381.097C117.139 380.73 117.846 380.546 118.756 380.546H119.811V380.048C119.811 379.669 119.698 379.368 119.471 379.146C119.245 378.919 118.911 378.806 118.469 378.806C118.083 378.806 117.758 378.904 117.497 379.099C117.235 379.294 117.104 379.531 117.104 379.808H116.014C116.014 379.491 116.126 379.187 116.348 378.894C116.575 378.597 116.879 378.363 117.262 378.191C117.649 378.019 118.073 377.933 118.534 377.933C119.264 377.933 119.836 378.116 120.251 378.484C120.665 378.847 120.879 379.349 120.895 379.99V382.907C120.895 383.49 120.969 383.952 121.118 384.296V384.39H119.981ZM118.182 383.564C118.522 383.564 118.844 383.476 119.149 383.3C119.454 383.124 119.674 382.896 119.811 382.615V381.314H118.961C117.633 381.314 116.969 381.702 116.969 382.48C116.969 382.82 117.083 383.085 117.309 383.277C117.536 383.468 117.827 383.564 118.182 383.564ZM123.614 383.505H127.323V384.39H122.29V383.593L125.788 378.947H122.342V378.05H127.147V378.818L123.614 383.505Z" fill="#CCCCCC"/>
</g>
<g id="Group_9">
<path id="Vector_9" d="M54.5594 403.11C55.9402 403.11 57.0594 401.991 57.0594 400.61C57.0594 399.229 55.9402 398.11 54.5594 398.11C53.1787 398.11 52.0594 399.229 52.0594 400.61C52.0594 401.991 53.1787 403.11 54.5594 403.11Z" fill="#999999"/>
<path id="Moscow" d="M47.0028 395.279L49.7919 402.24L52.5809 395.279H54.0399V403.81H52.9149V400.488L53.0204 396.902L50.2196 403.81H49.3583L46.5634 396.919L46.6747 400.488V403.81H45.5497V395.279H47.0028ZM55.5692 400.582C55.5692 399.96 55.6903 399.402 55.9325 398.906C56.1786 398.41 56.5184 398.027 56.952 397.757C57.3895 397.488 57.8876 397.353 58.4462 397.353C59.3094 397.353 60.0067 397.652 60.538 398.25C61.0731 398.847 61.3407 399.642 61.3407 400.634V400.71C61.3407 401.328 61.2216 401.882 60.9833 402.375C60.7489 402.863 60.411 403.244 59.9696 403.517C59.5321 403.791 59.0282 403.927 58.4579 403.927C57.5985 403.927 56.9012 403.628 56.3661 403.031C55.8348 402.433 55.5692 401.642 55.5692 400.658V400.582ZM56.6591 400.71C56.6591 401.414 56.8212 401.978 57.1454 402.404C57.4735 402.83 57.911 403.042 58.4579 403.042C59.0087 403.042 59.4462 402.828 59.7704 402.398C60.0946 401.964 60.2567 401.359 60.2567 400.582C60.2567 399.886 60.0907 399.324 59.7587 398.894C59.4305 398.46 58.993 398.244 58.4462 398.244C57.911 398.244 57.4794 398.457 57.1512 398.882C56.8231 399.308 56.6591 399.917 56.6591 400.71ZM66.3915 402.128C66.3915 401.835 66.2802 401.609 66.0575 401.449C65.8387 401.285 65.454 401.144 64.9032 401.027C64.3563 400.91 63.9208 400.769 63.5966 400.605C63.2762 400.441 63.038 400.246 62.8817 400.019C62.7294 399.792 62.6532 399.523 62.6532 399.21C62.6532 398.691 62.8719 398.251 63.3094 397.892C63.7509 397.533 64.3134 397.353 64.9969 397.353C65.7157 397.353 66.2977 397.539 66.743 397.91C67.1923 398.281 67.4169 398.755 67.4169 399.333H66.327C66.327 399.037 66.2001 398.781 65.9462 398.566C65.6962 398.351 65.3798 398.244 64.9969 398.244C64.6024 398.244 64.2938 398.33 64.0712 398.501C63.8485 398.673 63.7372 398.898 63.7372 399.175C63.7372 399.437 63.8407 399.634 64.0477 399.767C64.2548 399.9 64.6278 400.027 65.1669 400.148C65.7098 400.269 66.1493 400.414 66.4852 400.582C66.8212 400.75 67.0692 400.953 67.2294 401.191C67.3934 401.425 67.4755 401.712 67.4755 402.052C67.4755 402.619 67.2489 403.074 66.7958 403.417C66.3427 403.757 65.7548 403.927 65.0321 403.927C64.5243 403.927 64.0751 403.837 63.6844 403.658C63.2938 403.478 62.9872 403.228 62.7645 402.908C62.5458 402.583 62.4364 402.234 62.4364 401.859H63.5204C63.5399 402.222 63.6844 402.511 63.954 402.726C64.2274 402.937 64.5868 403.042 65.0321 403.042C65.4423 403.042 65.7704 402.96 66.0165 402.796C66.2665 402.628 66.3915 402.406 66.3915 402.128ZM71.4305 403.042C71.8173 403.042 72.1552 402.925 72.4442 402.691C72.7333 402.457 72.8934 402.164 72.9247 401.812H73.9501C73.9305 402.175 73.8055 402.521 73.5751 402.849C73.3446 403.177 73.036 403.439 72.6493 403.634C72.2665 403.83 71.8602 403.927 71.4305 403.927C70.5673 403.927 69.8798 403.64 69.368 403.066C68.8602 402.488 68.6063 401.699 68.6063 400.699V400.517C68.6063 399.9 68.7196 399.351 68.9462 398.871C69.1727 398.39 69.4969 398.017 69.9188 397.751C70.3446 397.486 70.8466 397.353 71.4247 397.353C72.1356 397.353 72.7255 397.566 73.1942 397.992C73.6669 398.417 73.9188 398.97 73.9501 399.65H72.9247C72.8934 399.24 72.7372 398.904 72.4559 398.642C72.1786 398.376 71.8348 398.244 71.4247 398.244C70.8739 398.244 70.4462 398.443 70.1415 398.841C69.8407 399.236 69.6903 399.808 69.6903 400.558V400.763C69.6903 401.494 69.8407 402.056 70.1415 402.451C70.4423 402.845 70.8719 403.042 71.4305 403.042ZM74.8817 400.582C74.8817 399.96 75.0028 399.402 75.245 398.906C75.4911 398.41 75.8309 398.027 76.2645 397.757C76.702 397.488 77.2001 397.353 77.7587 397.353C78.6219 397.353 79.3192 397.652 79.8505 398.25C80.3856 398.847 80.6532 399.642 80.6532 400.634V400.71C80.6532 401.328 80.5341 401.882 80.2958 402.375C80.0614 402.863 79.7235 403.244 79.2821 403.517C78.8446 403.791 78.3407 403.927 77.7704 403.927C76.911 403.927 76.2137 403.628 75.6786 403.031C75.1473 402.433 74.8817 401.642 74.8817 400.658V400.582ZM75.9716 400.71C75.9716 401.414 76.1337 401.978 76.4579 402.404C76.786 402.83 77.2235 403.042 77.7704 403.042C78.3212 403.042 78.7587 402.828 79.0829 402.398C79.4071 401.964 79.5692 401.359 79.5692 400.582C79.5692 399.886 79.4032 399.324 79.0712 398.894C78.743 398.46 78.3055 398.244 77.7587 398.244C77.2235 398.244 76.7919 398.457 76.4637 398.882C76.1356 399.308 75.9716 399.917 75.9716 400.71ZM87.6259 402.316L88.8446 397.47H89.9286L88.0829 403.81H87.204L85.663 399.005L84.163 403.81H83.2841L81.4442 397.47H82.5223L83.7704 402.216L85.2469 397.47H86.12L87.6259 402.316Z" fill="#CCCCCC"/>
</g>
</g>
</g>
</svg>
